<svg xmlns="http://www.w3.org/2000/svg" width="128" height="128" viewBox="0 0 24 24" role="img" aria-label="GitHub">
  <path fill="#111111" d="M12 .5C5.73.5.75 5.64.75 12.05c0 5.18 3.29 9.57 7.86 11.12.58.11.79-.26.79-.56 0-.28-.01-1.02-.02-2.01-3.2.71-3.88-1.59-3.88-1.59-.52-1.36-1.28-1.72-1.28-1.72-1.05-.73.08-.72.08-.72 1.16.08 1.77 1.23 1.77 1.23 1.03 1.81 2.71 1.29 3.37.99.1-.77.4-1.29.73-1.59-2.55-.3-5.23-1.31-5.23-5.84 0-1.29.44-2.35 1.17-3.18-.12-.3-.51-1.52.11-3.18 0 0 .96-.31 3.15 1.21.91-.26 1.88-.38 2.85-.39.97.01 1.94.13 2.85.39 2.19-1.53 3.15-1.21 3.15-1.21.62 1.66.23 2.88.11 3.18.73.83 1.17 1.89 1.17 3.18 0 4.54-2.69 5.53-5.25 5.83.41.37.78 1.1.78 2.22 0 1.6-.01 2.89-.01 3.28 0 .31.21.68.8.56 4.56-1.55 7.85-5.94 7.85-11.12C23.25 5.64 18.27.5 12 .5Z"/>
</svg>

